<svg aria-hidden="true" style="position: absolute; width: 0; height: 0; overflow: hidden;" version="1.1" xmlns="http://www.w3.org/2000/svg" xmlns:xlink="http://www.w3.org/1999/xlink">
    <defs>
        <symbol id="icon-check" viewBox="0 0 32 32">
            <path d="M25.523 8.439c0.281 0.281 0.439 0.662 0.439 1.060s-0.158 0.779-0.439 1.060l-10.5 12.5c-0.281 0.281-0.662 0.439-1.060 0.439s-0.779-0.158-1.060-0.439l-6.5-6.5c-0.265-0.284-0.409-0.66-0.402-1.049s0.164-0.759 0.439-1.034c0.275-0.275 0.646-0.432 1.034-0.439s0.765 0.137 1.049 0.402l5.44 5.44 9.44-11.44c0.281-0.281 0.662-0.439 1.060-0.439s0.779 0.158 1.060 0.439z"></path>
        </symbol>
        <symbol id="icon-down" viewBox="0 0 32 32">
            <path d="M25.624 11.429c-0.462 0-0.924 0.176-1.276 0.528l-8.348 8.349-8.348-8.349c-0.705-0.704-1.848-0.704-2.553 0-0.704 0.705-0.704 1.848 0 2.553l9.624 9.624c0.705 0.704 1.848 0.704 2.553 0l9.624-9.624c0.704-0.705 0.704-1.848 0-2.553-0.352-0.352-0.814-0.528-1.276-0.528z"></path>
        </symbol>
        <symbol id="icon-earth" viewBox="0 0 32 32">
            <path d="M16 0.688c-8.444 0-15.313 6.869-15.313 15.313s6.869 15.313 15.313 15.313c8.444 0 15.313-6.869 15.313-15.313s-6.869-15.313-15.313-15.313zM12.7 2.388c-1.225 1.269-2.256 3.237-2.956 5.706h-5.3c1.925-2.806 4.85-4.881 8.256-5.706zM9.412 9.394c-0.212 0.95-0.381 1.963-0.5 3.025-1.563 0.194-2.819 1.394-3.1 2.925h-3.806c0.1-2.144 0.681-4.162 1.637-5.95h5.769zM11.512 16c0 1.188-0.963 2.15-2.15 2.15s-2.15-0.962-2.15-2.15c0-1.188 0.963-2.15 2.15-2.15 1.181 0 2.15 0.963 2.15 2.15zM2.006 16.65h3.806c0.281 1.538 1.538 2.731 3.1 2.931 0.119 1.063 0.287 2.075 0.5 3.025h-5.762c-0.962-1.794-1.544-3.813-1.644-5.956zM4.444 23.906h5.3c0.706 2.469 1.731 4.444 2.956 5.706-3.406-0.825-6.331-2.9-8.256-5.706zM15.35 29.825c-1.7-0.463-3.256-2.7-4.238-5.919h4.238v5.919zM15.35 22.606h-4.6c-0.231-0.969-0.419-2.006-0.544-3.094 1.375-0.331 2.444-1.456 2.7-2.856h2.438v5.95h0.006zM15.356 15.35h-2.438c-0.256-1.4-1.325-2.525-2.7-2.856 0.125-1.088 0.313-2.125 0.544-3.094h4.594v5.95zM15.356 8.094h-4.238c0.988-3.219 2.538-5.456 4.238-5.919v5.919zM30 15.35h-6.706c-0.019-1.094-0.1-2.181-0.225-3.231 1.163-0.444 2.031-1.469 2.263-2.719h3.031c0.956 1.788 1.538 3.806 1.637 5.95zM21.775 10.894c-1.187 0-2.15-0.963-2.15-2.15s0.962-2.15 2.15-2.15c1.188 0 2.15 0.963 2.15 2.15s-0.962 2.15-2.15 2.15zM27.563 8.094h-2.238c-0.306-1.681-1.781-2.956-3.55-2.956-0.206 0-0.406 0.019-0.6 0.050-0.55-1.15-1.175-2.087-1.856-2.8 3.4 0.825 6.319 2.9 8.244 5.706zM16.656 2.175c1.194 0.325 2.35 1.544 3.288 3.456-0.887 0.525-1.531 1.413-1.719 2.456h-1.569v-5.912zM16.656 9.394h1.563c0.288 1.694 1.775 2.981 3.556 2.981h0.006c0.119 0.969 0.181 1.963 0.206 2.969h-5.331v-5.95zM23.925 23.194c0 1.188-0.962 2.15-2.15 2.15s-2.15-0.962-2.15-2.15c0-1.187 0.962-2.15 2.15-2.15s2.15 0.969 2.15 2.15zM16.656 16.65h5.331c-0.019 0.988-0.087 1.962-0.2 2.913-0.006 0-0.013 0-0.013 0-1.806 0-3.306 1.319-3.569 3.044h-1.55v-5.956zM16.656 29.825v-5.919h1.581c0.206 1.031 0.85 1.9 1.731 2.412-0.938 1.944-2.106 3.175-3.313 3.506zM19.319 29.612c0.694-0.719 1.325-1.681 1.881-2.856 0.188 0.031 0.381 0.044 0.575 0.044 1.75 0 3.206-1.25 3.538-2.9h2.25c-1.925 2.812-4.844 4.887-8.244 5.712zM28.356 22.6h-3.025c-0.213-1.275-1.094-2.325-2.269-2.775 0.125-1.038 0.2-2.1 0.219-3.175h6.712c-0.094 2.144-0.675 4.162-1.637 5.95z"></path>
        </symbol>
        <symbol id="icon-email" viewBox="0 0 32 32">
            <path d="M4 4h24c0.354 0 0.693 0.14 0.943 0.391s0.391 0.589 0.391 0.943v21.333c0 0.354-0.14 0.693-0.391 0.943s-0.589 0.391-0.943 0.391h-24c-0.354 0-0.693-0.14-0.943-0.391s-0.39-0.589-0.39-0.943v-21.333c0-0.354 0.14-0.693 0.39-0.943s0.589-0.391 0.943-0.391zM26.667 9.651l-10.571 9.467-10.763-9.496v15.712h21.333v-15.683zM6.015 6.667l10.067 8.883 9.921-8.883h-19.988z"></path>
        </symbol>
        <symbol id="icon-location" viewBox="0 0 32 32">
            <path d="M16 27.867l6.6-6.6c1.305-1.305 2.194-2.968 2.554-4.779s0.175-3.687-0.531-5.392c-0.706-1.705-1.903-3.163-3.437-4.189s-3.339-1.573-5.185-1.573-3.65 0.547-5.185 1.573c-1.535 1.026-2.731 2.483-3.438 4.189s-0.891 3.582-0.531 5.392c0.36 1.811 1.249 3.474 2.554 4.779l6.6 6.6zM16 31.637l-8.485-8.485c-1.678-1.678-2.821-3.816-3.284-6.144s-0.225-4.741 0.683-6.933 2.446-4.067 4.42-5.385c1.973-1.319 4.293-2.022 6.667-2.022s4.693 0.704 6.667 2.022c1.973 1.319 3.511 3.193 4.42 5.385s1.146 4.605 0.683 6.933c-0.463 2.328-1.606 4.466-3.284 6.144l-8.485 8.485zM16 17.333c0.707 0 1.386-0.281 1.886-0.781s0.781-1.178 0.781-1.886-0.281-1.386-0.781-1.886c-0.5-0.5-1.178-0.781-1.886-0.781s-1.386 0.281-1.886 0.781-0.781 1.178-0.781 1.886c0 0.707 0.281 1.385 0.781 1.886s1.178 0.781 1.886 0.781zM16 20c-1.414 0-2.771-0.562-3.771-1.562s-1.562-2.357-1.562-3.771c0-1.414 0.562-2.771 1.562-3.771s2.357-1.562 3.771-1.562c1.415 0 2.771 0.562 3.771 1.562s1.562 2.357 1.562 3.771c0 1.414-0.562 2.771-1.562 3.771s-2.357 1.562-3.771 1.562z"></path>
        </symbol>
        <symbol id="icon-logo" viewBox="0 0 32 32">
            <path fill="#cd0000" style="fill: var(--color1, #cd0000)" d="M11.915 20.085c-0.449-0.3-0.767-3.037-0.576-6.648 4.882-0.406 11.872-0.23 20.658 2.284 0.002 0.093 0.002 0.185 0.002 0.279 0 2.477-0.563 4.823-1.568 6.916-5.798-2.394-11.972-2.509-15.55-2.576-1.585-0.030-2.661-0.050-2.968-0.255z"></path>
            <path fill="#cd0000" style="fill: var(--color1, #cd0000)" d="M28.225 26.323c-2.935 3.472-7.322 5.677-12.225 5.677-8.837 0-16-7.163-16-16 0-6.408 3.768-11.937 9.208-14.491-0.984 3.454-1.562 6.592-1.852 9.364-2.261 0.501-3.799 1.070-4.633 1.383-1.362 0.511-0.841 2.803 1.021 2.383 0.263-0.038 0.639-0.116 1.124-0.218 0.595-0.125 1.355-0.284 2.273-0.444-0.215 6.681 1.344 10.534 2.39 10.534 0.186 0 0.502-0.012 0.927-0.029 3.001-0.116 11.427-0.441 17.766 1.841z"></path>
            <path fill="#cd0000" style="fill: var(--color1, #cd0000)" d="M14.503 0.069c-1.554 3.036-2.433 6.723-2.868 10.104 4.764-0.524 11.324-0.457 19.756 1.44-1.907-6.704-8.076-11.613-15.391-11.613-0.505 0-1.004 0.023-1.497 0.069z"></path>
        </symbol>
        <symbol id="icon-phone" viewBox="0 0 32 32">
            <path d="M12.655 14.326c1.192 2.093 2.925 3.827 5.018 5.018l1.123-1.572c0.181-0.253 0.447-0.431 0.75-0.5s0.62-0.025 0.893 0.124c1.796 0.982 3.779 1.572 5.82 1.732 0.318 0.025 0.616 0.17 0.832 0.404s0.337 0.542 0.337 0.862v5.666c0 0.314-0.117 0.618-0.327 0.851s-0.5 0.38-0.813 0.413c-0.673 0.070-1.351 0.104-2.034 0.104-10.87 0-19.683-8.813-19.683-19.683 0-0.683 0.034-1.361 0.104-2.034 0.032-0.313 0.179-0.603 0.412-0.813s0.537-0.327 0.851-0.327h5.666c0.319-0 0.627 0.12 0.862 0.337s0.379 0.514 0.404 0.832c0.16 2.040 0.751 4.024 1.732 5.82 0.149 0.272 0.193 0.59 0.124 0.893s-0.247 0.57-0.5 0.75l-1.572 1.123zM9.453 13.492l2.413-1.723c-0.685-1.478-1.154-3.047-1.393-4.658h-3.349c-0.008 0.211-0.011 0.423-0.011 0.635-0.001 9.468 7.674 17.143 17.142 17.143 0.212 0 0.424-0.004 0.635-0.013v-3.349c-1.611-0.239-3.18-0.708-4.658-1.393l-1.723 2.413c-0.694-0.27-1.368-0.588-2.016-0.952l-0.074-0.042c-2.491-1.418-4.553-3.48-5.971-5.971l-0.042-0.074c-0.365-0.649-0.683-1.323-0.952-2.017z"></path>
        </symbol>
        <symbol id="icon-send" viewBox="0 0 32 32">
            <path d="M5.333 5.333h21.333c1.473 0 2.667 1.194 2.667 2.667v16c0 1.473-1.194 2.667-2.667 2.667h-21.333c-1.473 0-2.667-1.194-2.667-2.667v-1.333h2.667v1.333h21.333v-14.114l-9.252 9.252c-0.781 0.781-2.047 0.781-2.828 0l-9.253-9.253v0.781h-2.667v-2.667c0-1.473 1.194-2.667 2.667-2.667zM24.781 8h-17.562l8.781 8.781 8.781-8.781z"></path>
            <path d="M2.667 13.333c-0.736 0-1.333 0.597-1.333 1.333s0.597 1.333 1.333 1.333h4c0.736 0 1.333-0.597 1.333-1.333s-0.597-1.333-1.333-1.333h-4z"></path>
            <path d="M0 18.667c0-0.736 0.597-1.333 1.333-1.333h6.667c0.736 0 1.333 0.597 1.333 1.333s-0.597 1.333-1.333 1.333h-6.667c-0.736 0-1.333-0.597-1.333-1.333z"></path>
        </symbol>
        <symbol id="icon-star-fill" viewBox="0 0 32 32">
            <path stroke-linejoin="miter" stroke-linecap="butt" stroke-miterlimit="4" stroke-width="2" d="M14.098 2.617c0.599-1.842 3.206-1.842 3.805 0l2.416 7.439h7.82c1.938 0 2.743 2.478 1.176 3.617l-6.326 4.598 2.416 7.438c0.598 1.842-1.511 3.373-3.078 2.234l-6.326-4.596-6.326 4.596c-1.567 1.139-3.676-0.392-3.078-2.234l2.416-7.438-6.326-4.598c-1.567-1.139-0.762-3.617 1.176-3.617h7.82l2.416-7.439z"></path>
        </symbol>
        <symbol id="icon-watsapp" viewBox="0 0 32 32">
            <path fill="#48c95f" style="fill: var(--color2, #48c95f)" d="M32 16c0 8.837-7.163 16-16 16s-16-7.163-16-16c0-8.837 7.163-16 16-16s16 7.163 16 16z"></path>
            <path fill="#fff" style="fill: var(--color3, #fff)" d="M22.341 9.65c-1.581-1.575-3.688-2.45-5.912-2.45-4.624 0-8.371 3.733-8.371 8.342 0 1.458 0.41 2.917 1.112 4.142l-1.171 4.317 4.449-1.167c1.229 0.642 2.576 0.992 3.98 0.992 4.624 0 8.371-3.733 8.371-8.342-0.058-2.158-0.878-4.258-2.459-5.833zM20.468 18.517c-0.176 0.467-0.995 0.933-1.405 0.992-0.351 0.058-0.82 0.058-1.288-0.058-0.293-0.117-0.702-0.233-1.171-0.467-2.107-0.875-3.454-2.975-3.571-3.15-0.117-0.117-0.878-1.108-0.878-2.158s0.527-1.517 0.702-1.75c0.176-0.233 0.41-0.233 0.585-0.233 0.117 0 0.293 0 0.41 0s0.293-0.058 0.468 0.35c0.176 0.408 0.585 1.458 0.644 1.517 0.059 0.117 0.059 0.233 0 0.35s-0.117 0.233-0.234 0.35c-0.117 0.117-0.234 0.292-0.293 0.35-0.117 0.117-0.234 0.233-0.117 0.408 0.117 0.233 0.527 0.875 1.171 1.458 0.819 0.7 1.463 0.933 1.697 1.050s0.351 0.058 0.468-0.058c0.117-0.117 0.527-0.583 0.644-0.817s0.293-0.175 0.468-0.117c0.176 0.058 1.229 0.583 1.405 0.7 0.234 0.117 0.351 0.175 0.41 0.233 0.058 0.175 0.058 0.583-0.117 1.050z"></path>
        </symbol>
        <symbol id="icon-whatsapp-phone" viewBox="0 0 32 32">
            <path fill="#48d107" style="fill: var(--color4, #48d107)" d="M27.057 4.775c-2.982-2.971-6.958-4.622-11.154-4.622-8.724 0-15.792 7.043-15.792 15.738 0 2.751 0.773 5.503 2.098 7.814l-2.209 8.144 8.393-2.201c2.319 1.21 4.859 1.871 7.51 1.871 8.725 0 15.792-7.043 15.792-15.737-0.11-4.072-1.657-8.034-4.638-11.005zM23.523 21.503c-0.331 0.88-1.877 1.761-2.65 1.871-0.663 0.11-1.546 0.11-2.43-0.11-0.552-0.22-1.325-0.44-2.209-0.88-3.976-1.651-6.516-5.613-6.737-5.943-0.221-0.22-1.657-2.091-1.657-4.072s0.994-2.861 1.325-3.302c0.331-0.44 0.773-0.44 1.104-0.44 0.221 0 0.552 0 0.773 0s0.552-0.11 0.883 0.66c0.331 0.77 1.104 2.751 1.215 2.861 0.11 0.22 0.11 0.44 0 0.66s-0.221 0.44-0.442 0.66c-0.221 0.22-0.442 0.55-0.552 0.66-0.221 0.22-0.442 0.44-0.221 0.77 0.221 0.44 0.994 1.651 2.209 2.751 1.546 1.321 2.761 1.761 3.203 1.981s0.663 0.11 0.884-0.11c0.221-0.22 0.994-1.101 1.215-1.541s0.552-0.33 0.884-0.22c0.331 0.11 2.319 1.101 2.651 1.321 0.442 0.22 0.663 0.33 0.773 0.44 0.11 0.33 0.11 1.101-0.221 1.981z"></path>
        </symbol>
        <symbol id="icon-youtube" viewBox="0 0 32 32">
            <path fill="#f40000" style="fill: var(--color5, #f40000)" d="M32 16c0 8.837-7.163 16-16 16s-16-7.163-16-16c0-8.837 7.163-16 16-16s16 7.163 16 16z"></path>
            <path fill="#fff" style="fill: var(--color3, #fff)" d="M22.971 15.13c0-0.31-0.052-0.672-0.052-1.086-0.052-0.414-0.104-0.828-0.155-1.19-0.103-0.414-0.259-0.724-0.569-0.983-0.259-0.258-0.621-0.414-0.983-0.465-1.189-0.155-2.948-0.207-5.327-0.207s-4.189 0.052-5.327 0.207c-0.362 0.052-0.724 0.207-0.983 0.465s-0.465 0.569-0.569 0.983c-0.103 0.362-0.155 0.724-0.155 1.19-0.052 0.414-0.052 0.776-0.052 1.086s0 0.672 0 1.189c0 0.517 0 0.931 0 1.189 0 0.31 0.052 0.672 0.052 1.086 0.052 0.414 0.103 0.827 0.155 1.189 0.103 0.414 0.259 0.724 0.569 0.983 0.259 0.259 0.621 0.414 0.983 0.465 1.19 0.155 2.948 0.207 5.327 0.207s4.189-0.052 5.327-0.207c0.362-0.052 0.724-0.207 0.983-0.465s0.465-0.569 0.569-0.983c0.104-0.362 0.155-0.724 0.155-1.189 0.052-0.414 0.052-0.776 0.052-1.086s0-0.672 0-1.189c0-0.517 0-0.931 0-1.19zM18.626 16.734l-4.086 2.534c-0.052 0.052-0.155 0.103-0.259 0.103s-0.155 0-0.259-0.052c-0.155-0.103-0.259-0.259-0.259-0.465v-5.12c0-0.207 0.104-0.362 0.259-0.466s0.362-0.103 0.517 0l4.086 2.534c0.155 0.104 0.259 0.259 0.259 0.414s-0.103 0.414-0.259 0.517z"></path>
        </symbol>
        <symbol id="icon-cross" viewBox="0 0 32 32">
            <path d="M17.555 16.011l10.127-10.093c0.423-0.427 0.423-1.119 0-1.546-0.416-0.435-1.102-0.448-1.534-0.029l-10.127 10.093-9.997-10.093c-0.205-0.219-0.49-0.342-0.788-0.342s-0.584 0.124-0.788 0.342c-0.375 0.413-0.375 1.046 0 1.459l9.997 10.079-10.127 10.079c-0.423 0.427-0.423 1.119 0 1.546 0.201 0.208 0.478 0.324 0.767 0.321 0.294 0.024 0.585-0.070 0.81-0.263l10.127-10.093 10.127 10.21c0.201 0.208 0.479 0.324 0.767 0.321 0.288 0.001 0.564-0.114 0.767-0.321 0.423-0.427 0.423-1.119 0-1.546l-10.127-10.122z"></path>
        </symbol>
        <symbol id="icon-burger" viewBox="0 0 31 32">
            <path d="M19.872 14.061h-12.438c-0.536 0-0.97-0.434-0.97-0.97s0.434-0.97 0.97-0.97h12.438c0.536 0 0.97 0.434 0.97 0.97s-0.434 0.97-0.97 0.97zM7.434 18.586h16.575c0.535 0 0.97 0.434 0.97 0.97s-0.434 0.97-0.97 0.97h-16.575c-0.536 0-0.97-0.434-0.97-0.97s0.434-0.97 0.97-0.97z"></path>
        </symbol>
    </defs>
</svg>